:SAMPLES-PER-SECOND 30
:FULLY-SPECIFIED
:DEGREES
159
root  -80.4623 25.5461 1.93397 7.04726 77.0036 -24.7974
RightUpLeg  -65.9513 -2.95772 -18.9038
RightLeg  69.1206 4.9 10.4365
RightFoot  -23.2281 -0.546469 -2.28094
RightToes  -57.6461 -0.372459 -0.391699
Spine  19.8623 -0.0152937 6.00554
Spine1  30.776 -1.56853 9.50545
HEad  -4.74715 6.75812 -9.65574
LeftShoulder1  0 -2.42657e-020 -4.95415e-022
LeftArm  -20.8435 -43.0393 -100.65
LeftForeArm  49.825 -8.51125 -1.48853
LeftHand  -0.189849 -6.61364 2.91798
RightShoulder  0 2.42657e-020 1.07489e-018
RightArm  -18.152 45.234 78.1807
RightForeArm  76.4384 35.8871 7.23253
RightHand  -7.45852 21.1219 -38.1802
LeftUpLeg  -62.1165 0.345756 41.3533
LeftLeg  68.1986 2.83427 5.90853
LeftFoot  -14.8435 -0.633679 -4.86174
LeftToes  -30.8758 1.71452e-006 7.46813e-008
160
root  -79.8937 24.3645 1.57016 4.98665 77.7585 -26.7118
RightUpLeg  -65.9416 -2.85855 -20.8348
RightLeg  73.0858 3.70025 9.54193
RightFoot  -28.2913 -0.662327 -2.25005
RightToes  -59.5948 -0.390725 -0.395196
Spine  20.5362 1.16068 7.98939
Spine1  31.8606 1.3681 11.0559
HEad  -3.32743 3.93498 -9.17535
LeftShoulder1  0 -2.42657e-020 -4.95415e-022
LeftArm  -16.2118 -45.6388 -107.003
LeftForeArm  52.7332 -8.06548 -1.40361
LeftHand  -0.234648 -6.68217 3.65157
RightShoulder  0 2.42657e-020 1.07489e-018
RightArm  -38.3686 52.2948 69.7509
RightForeArm  71.1969 20.0553 3.61187
RightHand  -5.22023 19.7329 -29.0133
LeftUpLeg  -65.7769 2.60573 41.2156
LeftLeg  72.3417 1.531 3.89442
LeftFoot  -14.8969 -0.62731 -4.79552
LeftToes  -42.4162 1.71452e-006 7.46813e-008
161
root  -79.0619 23.8535 0.728042 2.22775 77.9262 -29.5923
RightUpLeg  -64.1069 -4.75973 -21.7658
RightLeg  72.8551 4.00037 10.1945
RightFoot  -29.0609 -0.807345 -2.73675
RightToes  -59.0446 -0.385549 -0.398983
Spine  20.2213 1.56693 10.2971
Spine1  30.8287 1.28104 15.149
HEad  -2.19708 0.93217 -8.97406
LeftShoulder1  0 -2.42657e-020 -4.95415e-022
LeftArm  -11.3941 -45.521 -113.251
LeftForeArm  52.5571 -8.07066 -1.40485
LeftHand  -0.281766 -6.31937 4.73606
RightShoulder  0 2.42657e-020 1.07489e-018
RightArm  -73.7501 52.0327 55.0047
RightForeArm  48.6439 9.77131 1.71781
RightHand  -2.9972 17.7211 -18.6898
LeftUpLeg  -67.2047 5.77652 38.0349
LeftLeg  76.615 0.997253 3.22217
LeftFoot  -21.4225 -1.00493 -5.30907
LeftToes  -38.1167 1.71452e-006 7.46813e-008
162
root  -77.7584 24.0312 -0.779686 12.1574 79.1481 -18.7595
RightUpLeg  -58.1891 -8.01091 -26.0691
RightLeg  68.4757 5.15629 10.6669
RightFoot  -27.4288 -0.825202 -3.00303
RightToes  -61.6883 -0.410543 -0.402331
Spine  19.1359 -0.208751 11.1845
Spine1  28.4496 -2.91907 17.7932
HEad  -2.10553 1.02634 -10.6298
LeftShoulder1  0 -2.42657e-020 -4.95415e-022
LeftArm  -6.96472 -43.8579 -113.591
LeftForeArm  47.0836 -10.1089 -1.78083
LeftHand  -0.297326 -6.84083 4.60623
RightShoulder  0 2.42657e-020 1.07489e-018
RightArm  -82.2354 45.7863 51.0849
RightForeArm  38.319 13.2079 2.36093
RightHand  -1.69167 20.1118 -9.1511
LeftUpLeg  -66.3423 5.31227 31.6647
LeftLeg  77.4091 0.567689 1.92032
LeftFoot  -24.4928 -1.02524 -4.72085
LeftToes  -41.7131 1.71452e-006 7.46813e-008
163
root  -75.9802 24.7338 -2.66584 29.9232 79.6441 1.18179
RightUpLeg  -48.5294 -6.83451 -32.9518
RightLeg  60.5165 4.24181 6.3691
RightFoot  -23.0308 -0.233093 -0.766557
RightToes  -62.6916 -0.420105 -0.404552
Spine  18.0745 -2.97378 10.5001
Spine1  26.5343 -8.55067 18.0794
HEad  -1.84526 3.33989 -13.0115
LeftShoulder1  0 -2.42657e-020 -4.95415e-022
LeftArm  -7.81398 -42.1651 -109.481
LeftForeArm  50.571 -11.3623 -2.00316
LeftHand  -0.504269 -8.22026 6.64443
RightShoulder  0 2.42657e-020 1.07489e-018
RightArm  -71.9272 39.13 54.162
RightForeArm  29.6819 22.3642 4.15357
RightHand  -1.23837 19.6649 -6.76847
LeftUpLeg  -63.3318 2.94206 22.8732
LeftLeg  76.9652 0.0137792 0.0228341
LeftFoot  -26.7092 -0.787106 -3.31471
LeftToes  -41.3289 1.71452e-006 7.46813e-008
164
root  -74.1804 25.8251 -4.68624 38.9033 76.4424 11.0207
RightUpLeg  -44.1742 -4.12823 -36.4733
RightLeg  55.6443 -4.09456 -5.27868
RightFoot  -9.48409 0.221266 3.04463
RightToes  -57.2086 -0.368385 -0.390388
Spine  16.6 -4.85311 9.12849
Spine1  24.7746 -12.1274 16.3306
HEad  -0.338132 7.82857 -17.2466
LeftShoulder1  0 -2.42657e-020 -4.95415e-022
LeftArm  -12.5192 -38.0833 -102.497
LeftForeArm  51.8357 -12.5534 -2.21958
LeftHand  -0.765346 -8.11663 10.3945
RightShoulder  0 2.42657e-020 1.07489e-018
RightArm  -67.2776 34.6604 58.7667
RightForeArm  20.1886 31.2888 6.14948
RightHand  -0.991814 22.5833 -4.59559
LeftUpLeg  -59.126 4.98322 13.2599
LeftLeg  75.4841 -0.570666 -1.75643
LeftFoot  -27.3682 -0.405713 -1.66621
LeftToes  -38.9579 1.71452e-006 7.46813e-008
165
root  -72.5062 26.9178 -6.56055 34.3573 70.836 5.74214
RightUpLeg  -47.4378 -8.77973 -32.0284
RightLeg  56.6018 -8.78656 -11.4858
RightFoot  -1.21834 0.0165538 1.93547
RightToes  -41.6332 -0.23166 -0.324161
Spine  15.6263 -5.06293 8.25615
Spine1  24.2716 -12.1262 13.7751
HEad  0.658012 13.6672 -22.2469
LeftShoulder1  0 -2.42657e-020 -4.95415e-022
LeftArm  -17.7341 -32.5582 -96.1488
LeftForeArm  47.2288 -14.4603 -2.5819
LeftHand  -0.719199 -6.8075 11.6896
RightShoulder  0 2.42657e-020 1.07489e-018
RightArm  -58.199 32.2152 60.13
RightForeArm  24.1714 38.5279 8.07555
RightHand  -1.20431 22.3841 -5.71273
LeftUpLeg  -56.6171 11.1252 7.26491
LeftLeg  76.1109 -2.05448 -6.48081
LeftFoot  -23.8095 0.159658 0.757303
LeftToes  -42.8937 1.71452e-006 7.46813e-008
166
root  -71.0013 27.7027 -7.96661 30.0283 66.1965 1.4447
RightUpLeg  -49.9634 -13.8533 -24.8165
RightLeg  60.559 -1.4772 -2.35296
RightFoot  -3.36974 0.0347685 1.55983
RightToes  -51.0845 -0.312518 -0.368809
Spine  15.4707 -5.40642 7.20803
Spine1  25.2408 -11.913 10.2003
HEad  -0.953958 19.318 -25.9186
LeftShoulder1  0 -2.42657e-020 -4.95415e-022
LeftArm  -24.2217 -26.5728 -89.1985
LeftForeArm  41.4151 -17.334 -3.13706
LeftHand  -0.648667 -6.43081 11.1498
RightShoulder  0 2.42657e-020 1.07489e-018
RightArm  -51.3077 33.3934 64.5719
RightForeArm  27.7306 45.3642 10.304
RightHand  -0.996346 23.5738 -4.40319
LeftUpLeg  -56.1818 16.3951 7.06558
LeftLeg  80.6943 -5.13363 -21.2321
LeftFoot  -14.2869 0.492579 3.92884
LeftToes  -50.697 1.71452e-006 7.46813e-008
167
root  -69.6293 28.0415 -9.31478 28.44 63.9098 0.561615
RightUpLeg  -48.1806 -16.377 -22.0513
RightLeg  66.2263 3.86535 7.26512
RightFoot  -3.89732 0.0215315 1.01056
RightToes  -57.736 -0.373298 -0.391965
Spine  15.3361 -6.25034 5.86057
Spine1  25.8847 -12.5562 6.64113
HEad  -2.57752 23.4984 -27.4178
LeftShoulder1  0 -2.42657e-020 -4.95415e-022
LeftArm  -31.3279 -20.86 -83.7512
LeftForeArm  35.8187 -19.686 -3.60428
LeftHand  -0.599524 -6.16351 10.7429
RightShoulder  0 2.42657e-020 1.07489e-018
RightArm  -39.1517 34.7462 68.2379
RightForeArm  38.1252 50.4088 12.3353
RightHand  -2.17303 24.0044 -9.82808
LeftUpLeg  -55.7204 15.5959 11.4116
LeftLeg  81.4299 -6.5363 -27.6912
LeftFoot  -10.1083 0.354834 4.01044
LeftToes  -60.0396 1.71452e-006 7.46813e-008
